<svg xmlns="http://www.w3.org/2000/svg" viewBox="0 0 100 100" role="img" aria-label="Wisetrack Technologies">
  <!-- Rounded-square dark badge so the mark stays visible against any browser tab background. -->
  <rect width="100" height="100" rx="22" fill="#07080F"/>
  <!-- WT mark inset; uses the same paths as wt-mark.svg but tinted cyan for contrast. -->
  <svg x="14" y="25" width="72" height="50" viewBox="0 0 228 151" preserveAspectRatio="xMidYMid meet">
    <g transform="translate(0,151) scale(0.1,-0.1)" fill="#22D3EE">
      <path d="M90 1416 c-11 -14 -10 -19 1 -34 8 -9 20 -28 27 -41 18 -31 137 -237
246 -425 47 -82 86 -151 86 -152 0 -2 25 -44 55 -94 30 -50 55 -93 55 -95 0
-11 92 -155 100 -155 10 0 23 16 52 70 14 25 39 70 57 102 l32 56 -22 39 c-12
21 -38 67 -59 103 -21 36 -65 112 -97 170 -54 94 -239 411 -262 450 -15 23
-252 28 -271 6z"/>
      <path d="M643 1415 c-3 -9 2 -24 11 -34 9 -10 16 -21 16 -24 0 -4 18 -36 40
-72 22 -36 40 -67 40 -70 0 -10 92 -155 98 -155 4 0 32 43 61 95 30 53 62 100
72 105 10 6 71 10 137 10 98 0 121 -3 126 -15 3 -9 -18 -54 -49 -105 -30 -50
-55 -93 -55 -95 0 -2 -25 -45 -55 -95 -30 -50 -55 -93 -55 -95 0 -2 -25 -45
-55 -95 -30 -50 -55 -93 -55 -95 0 -2 -25 -45 -55 -95 -30 -50 -55 -93 -55
-95 0 -2 -20 -38 -45 -78 -48 -79 -53 -101 -31 -132 7 -11 27 -45 44 -75 57
-103 67 -120 74 -120 9 0 40 49 85 130 39 72 211 369 285 493 32 54 58 100 58
102 0 2 25 45 55 95 30 50 55 93 55 95 0 4 51 91 90 155 5 8 19 33 30 55 12
22 29 46 38 53 12 9 87 12 294 12 l278 0 22 38 c13 21 29 47 36 57 23 37 25
47 11 56 -8 5 -353 9 -777 9 -677 0 -763 -2 -769 -15z"/>
      <path d="M1719 1050 c-14 -8 -45 -58 -137 -220 -105 -185 -135 -236 -143 -244
-12 -14 -41 16 -68 69 -14 29 -29 45 -38 43 -12 -3 -57 -68 -80 -118 -3 -8
-17 -32 -30 -52 -29 -47 -29 -59 2 -108 14 -22 25 -41 25 -43 0 -11 167 -291
175 -294 8 -2 73 102 170 276 17 31 95 165 132 226 7 11 15 27 19 35 4 8 25
43 46 78 21 34 38 64 38 66 0 4 81 146 100 176 5 8 21 36 35 62 21 40 22 47 9
52 -25 10 -237 6 -255 -4z"/>
    </g>
  </svg>
</svg>
