<svg xmlns="http://www.w3.org/2000/svg" viewBox="0 0 1792 1402">
  <g transform="translate(0,1402) scale(0.1,-0.1)" fill="currentColor" stroke="none">
    <path d="M3325 12019 c-981 -48 -1624 -427 -1845 -1086 -70 -210 -96 -423 -87
-703 9 -258 30 -426 121 -991 90 -556 122 -905 105 -1157 -10 -145 -37 -252
-91 -362 -54 -108 -175 -234 -288 -297 -162 -91 -407 -149 -672 -160 l-148 -6
0 -316 c0 -174 4 -322 9 -330 7 -10 47 -16 150 -22 658 -38 1002 -312 1039
-829 18 -235 -11 -534 -102 -1086 -139 -833 -157 -1156 -86 -1537 116 -618
538 -1041 1215 -1218 271 -71 533 -99 945 -102 l275 -2 3 356 2 357 -257 5
c-341 6 -490 33 -671 117 -319 150 -483 425 -511 858 -16 254 11 557 94 1022
82 467 111 777 102 1085 -10 334 -78 579 -217 786 -155 230 -437 418 -745 497
-58 15 -105 30 -105 34 0 4 19 12 43 19 297 79 511 193 677 359 174 175 271
371 327 663 15 75 18 144 17 377 -1 320 -17 491 -79 845 -91 518 -116 726
-116 995 -1 102 4 223 11 270 57 424 263 676 640 786 154 45 250 56 528 61
l262 5 -2 357 -3 356 -190 1 c-104 1 -262 -2 -350 -7z"/>
    <path d="M14060 11673 l0 -360 248 -6 c339 -7 505 -38 697 -131 257 -123 397
-315 467 -638 29 -137 32 -472 5 -680 -26 -196 -80 -541 -121 -768 -57 -317
-68 -419 -73 -671 -6 -268 4 -384 47 -556 114 -453 422 -753 920 -896 46 -14
86 -29 88 -35 1 -5 -14 -13 -34 -17 -75 -14 -245 -75 -336 -120 -177 -89 -315
-200 -417 -336 -76 -100 -105 -149 -152 -259 -86 -199 -119 -388 -119 -690 0
-238 20 -440 75 -745 42 -230 108 -651 127 -805 7 -58 12 -202 12 -320 0 -244
-16 -345 -76 -507 -45 -120 -88 -189 -172 -280 -144 -155 -335 -247 -616 -298
-63 -11 -174 -19 -332 -22 l-238 -6 0 -360 0 -360 288 7 c335 8 461 17 669 52
467 77 819 240 1079 500 197 197 323 433 388 724 40 186 49 298 43 574 -6 294
-19 410 -112 961 -80 471 -103 653 -114 869 -16 352 28 552 162 733 152 205
471 341 842 359 61 3 129 7 153 10 l42 5 0 328 0 328 -147 6 c-531 21 -866
200 -993 529 -46 119 -61 227 -61 439 0 282 19 456 116 1049 96 583 105 669
112 957 6 268 -2 375 -39 538 -149 649 -661 1064 -1481 1199 -209 35 -336 45
-664 53 l-283 6 0 -360z"/>
  </g>
</svg>
