<svg xmlns="http://www.w3.org/2000/svg" viewBox="0 0 15649.63 702.00" role="img" aria-label="WISETRACK TECHNOLOGIES">
  <title>WISETRACK TECHNOLOGIES</title>
  <g transform="translate(-40.00,701.00)">
  <g transform="translate(0.00,0) scale(1.000000,-1.000000)" fill="#EAEAF5"><path d="M460 71 505 198 549 71C584 -25 714 -25 749 71L969 700H810L666 288C661 273 639 269 632 288L488 700H329L425 426L377 288C372 273 350 269 343 288L199 700H40L260 71C295 -25 425 -25 460 71Z"/></g>
  <g transform="translate(1049.00,0) scale(1.000000,-1.000000)" fill="#EAEAF5"><path d="M40 0H190V700H40Z"/></g>
  <g transform="translate(1319.00,0) scale(1.000000,-1.000000)" fill="#EAEAF5"><path d="M259 275H485C571 275 570 150 485 150H61V0H485C776 0 777 425 485 425H259C174 425 173 550 259 550H637V700H259C-33 700 -32 275 259 275Z"/></g>
  <g transform="translate(2103.00,0) scale(1.000000,-1.000000)" fill="#EAEAF5"><path d="M215 701C98 701 40 635 40 501V1H680V151H190V476C190 526 211 551 253 551H681V701ZM315 276H620V426H315Z"/></g>
  <g transform="translate(2865.00,0) scale(1.000000,-1.000000)" fill="#EAEAF5"><path d="M40 550H285V0H435V550H680V700H40Z"/></g>
  <g transform="translate(3625.00,0) scale(1.000000,-1.000000)" fill="#EAEAF5"><path d="M40 0H190V200C190 250 215 275 265 275H375C425 275 434 247 450 200L520 0H680L600 225C591 252 582 276 573 298C753 386 719 700 468 700H40V550H468C554 550 553 425 468 425H240C106 425 40 359 40 225Z"/></g>
  <g transform="translate(4392.00,0) scale(1.000000,-1.000000)" fill="#EAEAF5"><path d="M460 629C425 725 295 725 260 629L40 0H199L343 412C350 431 372 427 377 412L521 0H680Z"/></g>
  <g transform="translate(5152.00,0) scale(1.000000,-1.000000)" fill="#EAEAF5"><path d="M240 700C106 700 40 634 40 500V200C40 66 106 0 240 0H680V150H265C215 150 190 175 190 225V475C190 525 215 550 265 550H530V470H680V700Z"/></g>
  <g transform="translate(5912.00,0) scale(1.000000,-1.000000)" fill="#EAEAF5"><path d="M40 0H190V275H386C436 275 445 247 461 200L531 0H681L601 225C583 276 569 318 550 350C569 382 583 424 601 475L681 700H531L461 500C445 453 436 425 386 425H190V700H40Z"/></g>
  <g transform="translate(7173.00,0) scale(1.000000,-1.000000)" fill="#EAEAF5"><path d="M40 550H285V0H435V550H680V700H40Z"/></g>
  <g transform="translate(7933.00,0) scale(1.000000,-1.000000)" fill="#EAEAF5"><path d="M215 701C98 701 40 635 40 501V1H680V151H190V476C190 526 211 551 253 551H681V701ZM315 276H620V426H315Z"/></g>
  <g transform="translate(8695.00,0) scale(1.000000,-1.000000)" fill="#EAEAF5"><path d="M240 700C106 700 40 634 40 500V200C40 66 106 0 240 0H680V150H265C215 150 190 175 190 225V475C190 525 215 550 265 550H530V470H680V700Z"/></g>
  <g transform="translate(9455.00,0) scale(1.000000,-1.000000)" fill="#EAEAF5"><path d="M40 0H190V275H530V0H680V700H530V425H190V700H40Z"/></g>
  <g transform="translate(10215.00,0) scale(1.000000,-1.000000)" fill="#EAEAF5"><path d="M530 315C530 286 509 287 497 302L228 650C154 745 40 693 40 595V0H190V385C190 414 211 413 223 398L492 50C566 -45 680 7 680 105V700H530Z"/></g>
  <g transform="translate(10975.00,0) scale(1.000000,-1.000000)" fill="#EAEAF5"><path d="M240 700C106 700 40 634 40 500V200C40 66 106 0 240 0H480C614 0 680 66 680 200V500C680 634 614 700 480 700ZM190 225V475C190 525 215 550 265 550H455C505 550 530 525 530 475V225C530 175 505 150 455 150H265C215 150 190 175 190 225Z"/></g>
  <g transform="translate(11735.00,0) scale(1.000000,-1.000000)" fill="#EAEAF5"><path d="M240 0H610V150H265C215 150 190 175 190 225V700C190 700 40 700 40 700V200C40 66 106 0 240 0Z"/></g>
  <g transform="translate(12425.00,0) scale(1.000000,-1.000000)" fill="#EAEAF5"><path d="M240 700C106 700 40 634 40 500V200C40 66 106 0 240 0H480C614 0 680 66 680 200V500C680 634 614 700 480 700ZM190 225V475C190 525 215 550 265 550H455C505 550 530 525 530 475V225C530 175 505 150 455 150H265C215 150 190 175 190 225Z"/></g>
  <g transform="translate(13185.00,0) scale(1.000000,-1.000000)" fill="#EAEAF5"><path d="M480 0C757 0 758 425 480 425H315V275H455C550 275 550 150 455 150H265C215 150 190 175 190 225V475C190 525 215 550 265 550H620V700H240C106 700 40 634 40 500V200C40 66 106 0 240 0Z"/></g>
  <g transform="translate(13954.00,0) scale(1.000000,-1.000000)" fill="#EAEAF5"><path d="M40 0H190V700H40Z"/></g>
  <g transform="translate(14224.00,0) scale(1.000000,-1.000000)" fill="#EAEAF5"><path d="M215 701C98 701 40 635 40 501V1H680V151H190V476C190 526 211 551 253 551H681V701ZM315 276H620V426H315Z"/></g>
  <g transform="translate(14986.00,0) scale(1.000000,-1.000000)" fill="#EAEAF5"><path d="M259 275H485C571 275 570 150 485 150H61V0H485C776 0 777 425 485 425H259C174 425 173 550 259 550H637V700H259C-33 700 -32 275 259 275Z"/></g>
  </g>
</svg>
